<svg xmlns="http://www.w3.org/2000/svg" viewBox="0 0 489.62 170.91"><defs><style>.cls-1{fill:#f2ca52;}.cls-2{fill:#dea54b;}.cls-3{fill:#e55744;}.cls-4{fill:#ce4c3e;}.cls-5{fill:#f5f6f6;}.cls-6{fill:#e1e3e4;}.cls-7{fill:#232323;}</style></defs><g id="Layer_2" data-name="Layer 2"><g id="Layer_7" data-name="Layer 7"><g id="Layer_4" data-name="Layer 4"><rect class="cls-1" x="0.03" y="83.43" width="118.02" height="38.18" rx="0.85"/><rect class="cls-2" x="9.6" y="73.19" width="16.57" height="10.24"/><rect class="cls-2" x="35.84" y="73.19" width="16.57" height="10.24"/><rect class="cls-2" x="65.29" y="73.19" width="16.57" height="10.24"/><rect class="cls-2" x="91.99" y="73.19" width="16.57" height="10.24"/><rect class="cls-3" x="0.03" y="131.61" width="118.02" height="38.18" rx="0.88"/><rect class="cls-4" x="9.6" y="121.61" width="16.57" height="10.24"/><rect class="cls-4" x="35.84" y="121.61" width="16.57" height="10.24"/><rect class="cls-4" x="65.29" y="121.61" width="16.57" height="10.24"/><rect class="cls-4" x="91.99" y="121.61" width="16.57" height="10.24"/><rect class="cls-5" x="2.64" y="20.88" width="118.02" height="38.18" rx="0.88" transform="translate(10.92 -13.17) rotate(13.37)"/><rect class="cls-6" x="18.93" y="1.78" width="16.57" height="10.24" transform="translate(2.33 -6.11) rotate(13.37)"/><rect class="cls-6" x="44.45" y="7.85" width="16.57" height="10.24" transform="translate(4.43 -11.85) rotate(13.37)"/><rect class="cls-6" x="73.11" y="14.66" width="16.57" height="10.24" transform="translate(6.78 -18.29) rotate(13.37)"/><rect class="cls-6" x="99.08" y="20.83" width="16.57" height="10.24" transform="translate(8.91 -24.13) rotate(13.37)"/></g><g id="Layer_1-2" data-name="Layer 1"><path class="cls-7" d="M192,163c-3.82-.2-11.63-.84-15.45-1.13-5-.39-12.33-.91-15.76-1.2-8.74-.75-14.22-1.28-22.06-2.31a80.54,80.54,0,0,1-9.13-1.45,2,2,0,0,1-1.79-2.47c.66-7,1.69-13.66,2.08-21.05s.72-15.69.71-23.34c0-8.14-.09-15.66-.75-24S126.73,68.27,126,59.87c-.14-1.59.47-1.56,2-1.88a47.51,47.51,0,0,1,6.2-.43c2-.08,4.15,0,6.31-.11s4.68-.36,6.91-.65,4.71-.71,6.87-.92c1-.1,1,.41,1.13,1.19a8.63,8.63,0,0,1,0,.89C155.89,72.14,158,85.6,157,100c-.29,5.67,0,14.81,0,19.73,0,6.36-.19,9.61-.25,15a7.84,7.84,0,0,0,.06,1.76c.1.8.14.84,1.19,1.15.08,0,.43,0,1.93.07,5.41.24,12.73.28,18.77.22s13.21,0,19,.31c1.73.08,2,.76,1.92,1.72a103.48,103.48,0,0,1-2.83,20.86c-.34,1.4-.28,1.6-1.77,2.21A10.9,10.9,0,0,1,192,163Z"/><path class="cls-7" d="M242.61,137.2c-.28,2.87-1.36,4.42-3.25,4.63-.32,0-3.29,0-8.92.08q-5.08.06-15.14-.15a6.1,6.1,0,0,0,3.21,4.58,12.87,12.87,0,0,0,5.51,1.74,16.13,16.13,0,0,0,7.84-1.3l3.44-1.73c.57.35,1.43,1.89,2.58,4.65s1.69,4.48,1.62,5.19c0,.2-.26.51-.73.92q-5.76,5.08-16.71,4-10.16-1-15.8-7.54-5.81-6.63-4.82-16.7,1-9.81,7.29-15.52,6.51-5.91,16.24-5a18.61,18.61,0,0,1,13.32,7.33A19.9,19.9,0,0,1,242.61,137.2Zm-15.1-4.63a6.61,6.61,0,0,0-1.89-4.67,6,6,0,0,0-4.5-2,5.41,5.41,0,0,0-4.46,2.27,7.83,7.83,0,0,0-1.62,4.93c0,.77.4,1.15,1.2,1.15a74.54,74.54,0,0,0,9.85-1C227,133.11,227.51,132.89,227.51,132.57Z"/><path class="cls-7" d="M288.5,148.83q-.64,12.19-6.06,17.23-5.6,5.15-17.92,4.5a58.28,58.28,0,0,1-9.74-1.67c-5.22-1.25-7.8-2.54-7.73-3.85q0-.81,2.28-8.29c.25-.78.58-1.17,1-1.15a2.47,2.47,0,0,1,.46.2,27.91,27.91,0,0,0,12,3.9,13.4,13.4,0,0,0,6.2-1.22c2.52-1.09,3.83-2.57,3.93-4.42l.15-2.87a15.73,15.73,0,0,1-11.43,3.51,17,17,0,0,1-12.91-6.47A21.43,21.43,0,0,1,250,121a16.75,16.75,0,0,1,13.4-4.91q6.45.33,9.64,5.14c.42.65.72,1,.89,1s.41-.49.46-1.52c.12-2.28.44-3.41.95-3.38s2.92.39,7.37,1.1,6.77,1.09,6.93,1.16a1.05,1.05,0,0,1,.67,1.15q-.15,3-.66,8.8c-.33,3.91-.55,6.84-.66,8.81-.06,1.17-.14,2.92-.23,5.26S288.56,147.66,288.5,148.83Zm-14.18-12.64a7.77,7.77,0,0,0-1.79-5.52,7,7,0,0,0-10.4-.51,8,8,0,0,0-2.36,5.35,7.65,7.65,0,0,0,1.83,5.5,6.81,6.81,0,0,0,5,2.54,6.73,6.73,0,0,0,5.32-2A7.88,7.88,0,0,0,274.32,136.19Z"/><path class="cls-7" d="M335.29,137.33q0,9.76-6,15.85t-15.7,6.09q-9.44,0-15.51-6T292,137.84q0-9.93,5.83-16.13t15.77-6.19q9.67,0,15.68,6.06T335.29,137.33Zm-14.05,0a9.28,9.28,0,0,0-2.1-6,6.69,6.69,0,0,0-5.45-2.59,6.91,6.91,0,0,0-5.57,2.65,9.62,9.62,0,0,0,0,11.87,7.12,7.12,0,0,0,11.1,0A9.16,9.16,0,0,0,321.24,137.33Z"/><path class="cls-7" d="M389.1,159.18q-4.8,0-12.5-.22l-12.49-.27-16.68-.23q-2.52.06-7.2-.22-1.62-.27-1.62-1.71,0-6,.2-18t.19-18q0-6.39-.39-19.16t-.39-19.17c0-.81.56-1.22,1.68-1.22s2.77.06,5,.17,3.86.16,4.93.16c1.23,0,3.05-.06,5.47-.19s4.24-.19,5.47-.19q.84,0,.78,1l-.06.71q-.66,10.38-1.5,31.17l-.06,14.56q0,7.07.06,10.32c0,.44.07.88.11,1.32a.91.91,0,0,0,.84.83h1.45q5,0,15-.53c6.67-.34,11.69-.52,15-.52,1,0,1.51.42,1.51,1.27a82.43,82.43,0,0,1-1.4,16.27q-.27,1.44-1.17,1.71A11.93,11.93,0,0,1,389.1,159.18Z"/><path class="cls-7" d="M440.14,137.24q0,9.78-6,15.86t-15.71,6.08q-9.42,0-15.51-6t-6.08-15.42q0-9.94,5.83-16.14t15.76-6.19q9.69,0,15.69,6.07T440.14,137.24Zm-14.06,0a9.25,9.25,0,0,0-2.1-6,6.69,6.69,0,0,0-5.44-2.59,6.9,6.9,0,0,0-5.57,2.66,9.58,9.58,0,0,0,0,11.87,7.12,7.12,0,0,0,11.1,0A9.18,9.18,0,0,0,426.08,137.24Z"/><path class="cls-7" d="M489.09,144.49q1.79,12.09-2.52,18.09-4.47,6.16-16.67,8a55.82,55.82,0,0,1-9.88.29c-5.37-.18-8.15-.93-8.34-2.23q-.12-.81.59-8.58c.08-.82.34-1.26.76-1.32a1.94,1.94,0,0,1,.49.1,28,28,0,0,0,12.56,1.44,13.52,13.52,0,0,0,5.84-2.42c2.25-1.58,3.24-3.28,3-5.12l-.42-2.84a15.71,15.71,0,0,1-10.5,5.71A17,17,0,0,1,450,151.78a21.41,21.41,0,0,1-4.2-27A16.75,16.75,0,0,1,458,117.34q6.39-.95,10.47,3.13c.54.56.9.82,1.07.8s.3-.57.15-1.59c-.33-2.26-.24-3.42.26-3.5s2.93-.19,7.44-.38,6.85-.27,7-.24a1.06,1.06,0,0,1,.88,1c.29,2,.65,4.87,1.1,8.76s.81,6.81,1.1,8.76q.25,1.74.81,5.2C488.65,141.6,488.92,143.33,489.09,144.49Zm-16.4-9.57a7.75,7.75,0,0,0-2.85-5.06,7,7,0,0,0-10.29,1.56,8,8,0,0,0-1.26,5.71,7.67,7.67,0,0,0,2.89,5,6.79,6.79,0,0,0,5.44,1.49,6.7,6.7,0,0,0,4.81-3.05A7.81,7.81,0,0,0,472.69,134.92Z"/></g></g></g></svg>