<svg xmlns="http://www.w3.org/2000/svg" viewBox="0 0 170.17 234.18"><defs><style>.cls-1{fill:#f2ca52;}.cls-2{fill:#dea54b;}.cls-3{fill:#e55744;}.cls-4{fill:#ce4c3e;}.cls-5{fill:#f5f6f6;}.cls-6{fill:#e1e3e4;}</style></defs><g id="Layer_2" data-name="Layer 2"><g id="Layer_8" data-name="Layer 8"><rect class="cls-1" x="0.11" y="115.07" width="162.77" height="52.66" rx="0.85"/><rect class="cls-2" x="13.31" y="100.94" width="22.85" height="14.12"/><rect class="cls-2" x="49.49" y="100.94" width="22.85" height="14.12"/><rect class="cls-2" x="90.12" y="100.94" width="22.85" height="14.12"/><rect class="cls-2" x="126.94" y="100.94" width="22.85" height="14.12"/><rect class="cls-3" x="0.11" y="181.52" width="162.77" height="52.66" rx="0.88"/><rect class="cls-4" x="13.31" y="167.73" width="22.85" height="14.12"/><rect class="cls-4" x="49.49" y="167.73" width="22.85" height="14.12"/><rect class="cls-4" x="90.12" y="167.73" width="22.85" height="14.12"/><rect class="cls-4" x="126.94" y="167.73" width="22.85" height="14.12"/><rect class="cls-5" x="3.7" y="28.8" width="162.77" height="52.66" rx="0.88" transform="translate(15.06 -18.19) rotate(13.37)"/><rect class="cls-6" x="26.17" y="2.45" width="22.85" height="14.12" transform="translate(3.22 -8.44) rotate(13.37)"/><rect class="cls-6" x="61.37" y="10.82" width="22.85" height="14.12" transform="translate(6.11 -16.35) rotate(13.37)"/><rect class="cls-6" x="100.9" y="20.22" width="22.85" height="14.12" transform="translate(9.36 -25.24) rotate(13.37)"/><rect class="cls-6" x="136.72" y="28.73" width="22.85" height="14.12" transform="translate(12.3 -33.29) rotate(13.37)"/></g></g></svg>