<svg xmlns="http://www.w3.org/2000/svg" viewBox="0 0 170.17 234.18"><defs><style>.cls-1{fill:#f2ca52;}.cls-2{fill:#dea54b;}.cls-3{fill:#e55744;}.cls-4{fill:#ce4c3e;}.cls-5{fill:#f5f6f6;}.cls-6{fill:#e1e3e4;}.cls-7{fill:#232323;}</style></defs><g id="Layer_2" data-name="Layer 2"><g id="Layer_6" data-name="Layer 6"><g id="Layer_2-2" data-name="Layer 2"><rect class="cls-1" x="0.11" y="115.07" width="162.77" height="52.66" rx="0.85"/><rect class="cls-2" x="13.31" y="100.94" width="22.85" height="14.12"/><rect class="cls-2" x="49.49" y="100.94" width="22.85" height="14.12"/><rect class="cls-2" x="90.12" y="100.94" width="22.85" height="14.12"/><rect class="cls-2" x="126.94" y="100.94" width="22.85" height="14.12"/><rect class="cls-3" x="0.11" y="181.52" width="162.77" height="52.66" rx="0.88"/><rect class="cls-4" x="13.31" y="167.73" width="22.85" height="14.12"/><rect class="cls-4" x="49.49" y="167.73" width="22.85" height="14.12"/><rect class="cls-4" x="90.12" y="167.73" width="22.85" height="14.12"/><rect class="cls-4" x="126.94" y="167.73" width="22.85" height="14.12"/><rect class="cls-5" x="3.7" y="28.8" width="162.77" height="52.66" rx="0.88" transform="translate(15.06 -18.19) rotate(13.37)"/><rect class="cls-6" x="26.17" y="2.45" width="22.85" height="14.12" transform="translate(3.22 -8.44) rotate(13.37)"/><rect class="cls-6" x="61.37" y="10.82" width="22.85" height="14.12" transform="translate(6.11 -16.35) rotate(13.37)"/><rect class="cls-6" x="100.9" y="20.22" width="22.85" height="14.12" transform="translate(9.36 -25.24) rotate(13.37)"/><rect class="cls-6" x="136.72" y="28.73" width="22.85" height="14.12" transform="translate(12.3 -33.29) rotate(13.37)"/></g><g id="Layer_5" data-name="Layer 5"><path class="cls-7" d="M32.88,163c-1.6-.08-4.87-.35-6.47-.47-2.09-.16-5.17-.38-6.61-.5-3.66-.32-6-.54-9.24-1a34.23,34.23,0,0,1-3.83-.61.85.85,0,0,1-.75-1c.28-2.91.71-5.72.87-8.82s.3-6.58.3-9.78c0-3.41,0-6.56-.32-10.06s-1.31-7.46-1.62-11c-.06-.67.2-.66.84-.79a20,20,0,0,1,2.6-.18c.82,0,1.74,0,2.64,0s2-.15,2.9-.27,2-.3,2.88-.38c.41,0,.41.17.47.5a2.23,2.23,0,0,1,0,.37c.2,5.94,1.08,11.58.68,17.63-.12,2.38,0,6.21,0,8.27,0,2.67-.08,4-.11,6.29a4,4,0,0,0,0,.74c0,.33.06.35.5.48l.81,0c2.26.1,5.33.12,7.87.09s5.53,0,8,.13c.72,0,.82.32.8.72a42.8,42.8,0,0,1-1.19,8.74c-.14.59-.11.67-.74.93A4.36,4.36,0,0,1,32.88,163Z"/><path class="cls-7" d="M54.24,150.57c-.11,1.2-.57,1.85-1.36,1.94l-3.74,0q-2.13,0-6.34-.06a2.56,2.56,0,0,0,1.34,1.92,5.47,5.47,0,0,0,2.31.73,6.83,6.83,0,0,0,3.29-.55l1.44-.72a5.24,5.24,0,0,1,1.08,1.94,6.82,6.82,0,0,1,.68,2.18c0,.09-.11.21-.31.39-1.6,1.42-3.94,2-7,1.68A9.56,9.56,0,0,1,39,156.89a8.81,8.81,0,0,1-2-7,9.64,9.64,0,0,1,3-6.51,8.43,8.43,0,0,1,6.81-2.07,7.75,7.75,0,0,1,5.58,3.07A8.3,8.3,0,0,1,54.24,150.57Zm-6.33-1.94a2.75,2.75,0,0,0-.79-2,2.49,2.49,0,0,0-1.88-.85,2.26,2.26,0,0,0-1.87,1,3.21,3.21,0,0,0-.68,2.06c0,.33.16.49.5.49a31.16,31.16,0,0,0,4.13-.42C47.71,148.85,47.91,148.76,47.91,148.63Z"/><path class="cls-7" d="M73.48,155.44q-.27,5.12-2.54,7.22c-1.56,1.44-4.07,2.07-7.51,1.89a23.76,23.76,0,0,1-4.08-.7c-2.19-.53-3.27-1.06-3.25-1.61q0-.35,1-3.48.15-.49.42-.48a1,1,0,0,1,.2.08,11.7,11.7,0,0,0,5,1.64,5.8,5.8,0,0,0,2.6-.51c1.05-.46,1.6-1.08,1.64-1.86l.06-1.2a6.6,6.6,0,0,1-4.79,1.47,7.12,7.12,0,0,1-5.41-2.71,9,9,0,0,1,.51-11.43A7.05,7.05,0,0,1,63,141.7a4.83,4.83,0,0,1,4,2.16c.18.27.3.41.37.41s.17-.21.2-.64c0-.95.18-1.43.4-1.41s1.22.16,3.08.46,2.84.46,2.91.48a.46.46,0,0,1,.28.49c0,.82-.14,2-.28,3.69s-.23,2.86-.27,3.69c0,.49-.06,1.22-.1,2.2S73.51,155,73.48,155.44Zm-5.94-5.3a3.32,3.32,0,0,0-.75-2.31,2.86,2.86,0,0,0-2.13-1.08,2.83,2.83,0,0,0-2.23.87,3.26,3.26,0,0,0-1,2.24,3.2,3.2,0,0,0,.76,2.3,2.88,2.88,0,0,0,2.12,1.07,2.82,2.82,0,0,0,2.23-.85A3.35,3.35,0,0,0,67.54,150.14Z"/><path class="cls-7" d="M93.09,150.62a9.09,9.09,0,0,1-2.5,6.65,9.72,9.72,0,0,1-13.09,0A8.67,8.67,0,0,1,75,150.84a9.47,9.47,0,0,1,2.44-6.77A8.64,8.64,0,0,1,84,141.48,8.87,8.87,0,0,1,90.58,144,9,9,0,0,1,93.09,150.62Zm-5.89,0a3.86,3.86,0,0,0-.88-2.51A2.81,2.81,0,0,0,84,147a2.9,2.9,0,0,0-2.34,1.11,4,4,0,0,0,0,5,3,3,0,0,0,4.66,0A3.87,3.87,0,0,0,87.2,150.62Z"/><path class="cls-7" d="M115.64,159.78c-1.34,0-3.08,0-5.23-.09l-5.24-.12-7-.09c-.7,0-1.71,0-3-.09-.45-.08-.68-.32-.68-.72q0-2.52.08-7.55t.09-7.55c0-1.79-.06-4.46-.17-8s-.16-6.25-.16-8c0-.34.23-.5.7-.5s1.17,0,2.09.06,1.62.07,2.07.07,1.28,0,2.29-.08,1.78-.08,2.3-.08c.23,0,.34.15.32.44l0,.3q-.28,4.35-.63,13.06l0,6.11q0,3,0,4.32c0,.19,0,.37,0,.56a.39.39,0,0,0,.36.34h.6q2.11,0,6.3-.22c2.8-.14,4.9-.22,6.31-.22q.63,0,.63.54a34.56,34.56,0,0,1-.59,6.82c-.08.4-.24.64-.49.71A4.84,4.84,0,0,1,115.64,159.78Z"/><path class="cls-7" d="M137,150.58a9.09,9.09,0,0,1-2.51,6.65,9.72,9.72,0,0,1-13.08,0,8.71,8.71,0,0,1-2.55-6.47,9.45,9.45,0,0,1,2.44-6.76,8.65,8.65,0,0,1,6.61-2.6,8.85,8.85,0,0,1,6.57,2.54A9,9,0,0,1,137,150.58Zm-5.89,0a3.89,3.89,0,0,0-.88-2.5A2.8,2.8,0,0,0,128,147a2.87,2.87,0,0,0-2.33,1.12,3.77,3.77,0,0,0-.86,2.47,3.81,3.81,0,0,0,.86,2.5,3,3,0,0,0,4.65,0A3.86,3.86,0,0,0,131.15,150.58Z"/><path class="cls-7" d="M157.56,153.62c.5,3.38.14,5.91-1.06,7.59s-3.58,2.83-7,3.33a23.16,23.16,0,0,1-4.14.12c-2.25-.08-3.42-.39-3.5-.93,0-.23,0-1.43.25-3.6,0-.34.14-.53.32-.55a.59.59,0,0,1,.21,0,11.64,11.64,0,0,0,5.26.6,5.59,5.59,0,0,0,2.45-1c.94-.66,1.36-1.38,1.24-2.15l-.17-1.19a6.58,6.58,0,0,1-4.41,2.4,7.14,7.14,0,0,1-5.84-1.59,9,9,0,0,1-1.76-11.31,7,7,0,0,1,5.09-3.13,4.89,4.89,0,0,1,4.39,1.31c.23.24.38.35.45.34s.13-.24.06-.67c-.14-.94-.1-1.43.11-1.46s1.23-.09,3.12-.16,2.87-.12,2.94-.1a.43.43,0,0,1,.37.41c.13.82.28,2,.47,3.68s.34,2.85.46,3.67c.07.48.18,1.21.34,2.18S157.49,153.14,157.56,153.62Zm-6.88-4a3.26,3.26,0,0,0-1.19-2.12,2.82,2.82,0,0,0-2.3-.63,2.77,2.77,0,0,0-2,1.28,3.34,3.34,0,0,0-.52,2.4,3.2,3.2,0,0,0,1.21,2.11,2.83,2.83,0,0,0,2.28.62,2.8,2.8,0,0,0,2-1.28A3.28,3.28,0,0,0,150.68,149.61Z"/></g></g></g></svg>